<svg width="28" height="28" viewBox="0 0 28 28" fill="none" xmlns="http://www.w3.org/2000/svg">
<circle cx="14" cy="14" r="13.5" fill="url(#paint0_radial_935_45)" stroke="url(#paint1_linear_935_45)"/>
<g clip-path="url(#clip0_935_45)">
<path d="M20.9596 8.6154C20.9383 8.66178 20.909 8.70402 20.873 8.7402L12.6795 16.9319L14.9935 20.7895C15.0345 20.8581 15.0936 20.914 15.1644 20.9511C15.2352 20.9882 15.3149 21.0049 15.3947 20.9995C15.4744 20.9942 15.5511 20.9668 15.6163 20.9206C15.6814 20.8743 15.7326 20.811 15.764 20.7375L20.9596 8.6154ZM12.0676 16.3201L8.21009 14.0043C8.14148 13.9633 8.08555 13.9042 8.04848 13.8334C8.0114 13.7626 7.99463 13.6829 8.00001 13.6032C8.00539 13.5234 8.03272 13.4467 8.07897 13.3816C8.12522 13.3164 8.1886 13.2653 8.26209 13.2339L20.3868 8.03906C20.3397 8.06046 20.2968 8.0901 20.2602 8.1266L12.0676 16.3201Z" fill="#F8F8F8"/>
</g>
<defs>
<radialGradient id="paint0_radial_935_45" cx="0" cy="0" r="1" gradientUnits="userSpaceOnUse" gradientTransform="translate(14 14) rotate(90) scale(14)">
<stop stop-color="#BF9BF5"/>
<stop offset="1" stop-color="#BF9BF5" stop-opacity="0.33"/>
</radialGradient>
<linearGradient id="paint1_linear_935_45" x1="14" y1="0" x2="14" y2="28" gradientUnits="userSpaceOnUse">
<stop stop-color="#9D9BF5"/>
<stop offset="1" stop-color="#FF98DF"/>
</linearGradient>
<clipPath id="clip0_935_45">
<rect width="13" height="13" fill="white" transform="translate(8 8)"/>
</clipPath>
</defs>
</svg>
