<svg width="348" height="641" viewBox="0 0 348 641" fill="none" xmlns="http://www.w3.org/2000/svg">
<rect x="5" y="9" width="341" height="621" fill="#4FDFFF" fill-opacity="0.15"/>
<path d="M312.607 9.07617H345.587V43.4022" stroke="url(#paint0_linear_389_339)" stroke-width="4.03836"/>
<path d="M35.9795 9.07617H2.99957V43.4022" stroke="url(#paint1_linear_389_339)" stroke-width="4.03836"/>
<circle cx="210.975" cy="10.4229" r="3.3653" fill="url(#paint2_linear_389_339)"/>
<circle cx="136.939" cy="10.4229" r="3.3653" fill="url(#paint3_linear_389_339)"/>
<circle cx="43.3836" cy="28.5956" r="2.69224" fill="url(#paint4_linear_389_339)"/>
<circle cx="307.223" cy="28.5956" r="2.69224" fill="url(#paint5_linear_389_339)"/>
<path d="M51.46 9.07671H63.575L68.9595 1H94.5358L103.286 9.07671H128.189" stroke="url(#paint6_linear_389_339)" stroke-width="1.34612"/>
<path d="M222.417 9.74957H234.532L239.917 1.67285H265.493L274.243 9.74957H299.146" stroke="url(#paint7_linear_389_339)" stroke-width="1.34612"/>
<line x1="147.034" y1="9.07694" x2="202.225" y2="9.07694" stroke="url(#paint8_linear_389_339)" stroke-width="1.34612"/>
<line x1="13.7686" y1="18.4998" x2="334.145" y2="18.4998" stroke="url(#paint9_linear_389_339)" stroke-width="1.34612"/>
<line x1="14.6731" y1="20" x2="14.673" y2="618" stroke="url(#paint10_linear_389_339)" stroke-width="1.34612"/>
<line x1="3.67306" y1="54" x2="3.67307" y2="585" stroke="url(#paint11_linear_389_339)" stroke-width="1.34612"/>
<line x1="345.673" y1="54" x2="345.673" y2="585" stroke="url(#paint12_linear_389_339)" stroke-width="1.34612"/>
<line x1="334.673" y1="20" x2="334.673" y2="618" stroke="url(#paint13_linear_389_339)" stroke-width="1.34612"/>
<line x1="43.3828" y1="27.9226" x2="307.222" y2="27.9226" stroke="url(#paint14_linear_389_339)" stroke-width="1.34612"/>
<path d="M149.053 23.2109H203.571L204.917 27.2493H147.707L149.053 23.2109Z" fill="url(#paint15_linear_389_339)"/>
<path d="M312.607 631.326H345.587V597" stroke="url(#paint16_linear_389_339)" stroke-width="4.03836"/>
<path d="M35.9795 631.326H2.99957V597" stroke="url(#paint17_linear_389_339)" stroke-width="4.03836"/>
<circle cx="3.3653" cy="3.3653" r="3.3653" transform="matrix(1 0 0 -1 207.609 633.346)" fill="url(#paint18_linear_389_339)"/>
<circle cx="3.3653" cy="3.3653" r="3.3653" transform="matrix(1 0 0 -1 133.573 633.346)" fill="url(#paint19_linear_389_339)"/>
<circle cx="2.69224" cy="2.69224" r="2.69224" transform="matrix(1 0 0 -1 40.6904 614.499)" fill="url(#paint20_linear_389_339)"/>
<circle cx="2.69224" cy="2.69224" r="2.69224" transform="matrix(1 0 0 -1 304.53 614.499)" fill="url(#paint21_linear_389_339)"/>
<path d="M51.46 631.326H63.575L68.9595 639.402H94.5358L103.286 631.326H128.189" stroke="url(#paint22_linear_389_339)" stroke-width="1.34612"/>
<path d="M222.417 630.653H234.532L239.917 638.729H265.493L274.243 630.653H299.146" stroke="url(#paint23_linear_389_339)" stroke-width="1.34612"/>
<line y1="-0.67306" x2="55.1909" y2="-0.67306" transform="matrix(1 0 0 -1 147.034 630.653)" stroke="url(#paint24_linear_389_339)" stroke-width="1.34612"/>
<line y1="-0.67306" x2="320.376" y2="-0.67306" transform="matrix(1 0 0 -1 13.7686 621.23)" stroke="url(#paint25_linear_389_339)" stroke-width="1.34612"/>
<line y1="-0.67306" x2="263.839" y2="-0.67306" transform="matrix(1 0 0 -1 43.3828 611.808)" stroke="url(#paint26_linear_389_339)" stroke-width="1.34612"/>
<path d="M149.053 622.446H203.571L204.917 618.408H147.707L149.053 622.446Z" fill="url(#paint27_linear_389_339)"/>
<defs>
<linearGradient id="paint0_linear_389_339" x1="329.097" y1="9.07617" x2="329.097" y2="43.4022" gradientUnits="userSpaceOnUse">
<stop stop-color="#9D9BF5"/>
<stop offset="1" stop-color="#FF98DF"/>
</linearGradient>
<linearGradient id="paint1_linear_389_339" x1="19.4895" y1="9.07617" x2="19.4895" y2="43.4022" gradientUnits="userSpaceOnUse">
<stop stop-color="#9D9BF5"/>
<stop offset="1" stop-color="#FF98DF"/>
</linearGradient>
<linearGradient id="paint2_linear_389_339" x1="210.975" y1="7.05762" x2="210.975" y2="13.7882" gradientUnits="userSpaceOnUse">
<stop stop-color="#9D9BF5"/>
<stop offset="1" stop-color="#FF98DF"/>
</linearGradient>
<linearGradient id="paint3_linear_389_339" x1="136.939" y1="7.05762" x2="136.939" y2="13.7882" gradientUnits="userSpaceOnUse">
<stop stop-color="#9D9BF5"/>
<stop offset="1" stop-color="#FF98DF"/>
</linearGradient>
<linearGradient id="paint4_linear_389_339" x1="43.3836" y1="25.9033" x2="43.3836" y2="31.2878" gradientUnits="userSpaceOnUse">
<stop stop-color="#9D9BF5"/>
<stop offset="1" stop-color="#FF98DF"/>
</linearGradient>
<linearGradient id="paint5_linear_389_339" x1="307.223" y1="25.9033" x2="307.223" y2="31.2878" gradientUnits="userSpaceOnUse">
<stop stop-color="#9D9BF5"/>
<stop offset="1" stop-color="#FF98DF"/>
</linearGradient>
<linearGradient id="paint6_linear_389_339" x1="89.8244" y1="1" x2="89.8244" y2="9.07671" gradientUnits="userSpaceOnUse">
<stop stop-color="#9D9BF5"/>
<stop offset="1" stop-color="#FF98DF"/>
</linearGradient>
<linearGradient id="paint7_linear_389_339" x1="260.781" y1="1.67285" x2="260.781" y2="9.74957" gradientUnits="userSpaceOnUse">
<stop stop-color="#9D9BF5"/>
<stop offset="1" stop-color="#FF98DF"/>
</linearGradient>
<linearGradient id="paint8_linear_389_339" x1="174.63" y1="9.75" x2="174.63" y2="10.75" gradientUnits="userSpaceOnUse">
<stop stop-color="#9D9BF5"/>
<stop offset="1" stop-color="#FF98DF"/>
</linearGradient>
<linearGradient id="paint9_linear_389_339" x1="173.957" y1="19.1729" x2="173.957" y2="20.1729" gradientUnits="userSpaceOnUse">
<stop stop-color="#9D9BF5"/>
<stop offset="1" stop-color="#FF98DF"/>
</linearGradient>
<linearGradient id="paint10_linear_389_339" x1="14" y1="319" x2="13" y2="319" gradientUnits="userSpaceOnUse">
<stop stop-color="#9D9BF5"/>
<stop offset="1" stop-color="#FF98DF"/>
</linearGradient>
<linearGradient id="paint11_linear_389_339" x1="3" y1="319.5" x2="2" y2="319.5" gradientUnits="userSpaceOnUse">
<stop stop-color="#9D9BF5"/>
<stop offset="1" stop-color="#FF98DF"/>
</linearGradient>
<linearGradient id="paint12_linear_389_339" x1="345" y1="319.5" x2="344" y2="319.5" gradientUnits="userSpaceOnUse">
<stop stop-color="#9D9BF5"/>
<stop offset="1" stop-color="#FF98DF"/>
</linearGradient>
<linearGradient id="paint13_linear_389_339" x1="334" y1="319" x2="333" y2="319" gradientUnits="userSpaceOnUse">
<stop stop-color="#9D9BF5"/>
<stop offset="1" stop-color="#FF98DF"/>
</linearGradient>
<linearGradient id="paint14_linear_389_339" x1="175.302" y1="28.5957" x2="175.302" y2="29.5957" gradientUnits="userSpaceOnUse">
<stop stop-color="#9D9BF5"/>
<stop offset="1" stop-color="#FF98DF"/>
</linearGradient>
<linearGradient id="paint15_linear_389_339" x1="176.312" y1="23.2109" x2="176.312" y2="27.2493" gradientUnits="userSpaceOnUse">
<stop stop-color="#9D9BF5"/>
<stop offset="1" stop-color="#FF98DF"/>
</linearGradient>
<linearGradient id="paint16_linear_389_339" x1="329.097" y1="631.326" x2="329.097" y2="597" gradientUnits="userSpaceOnUse">
<stop stop-color="#9D9BF5"/>
<stop offset="1" stop-color="#FF98DF"/>
</linearGradient>
<linearGradient id="paint17_linear_389_339" x1="19.4895" y1="631.326" x2="19.4895" y2="597" gradientUnits="userSpaceOnUse">
<stop stop-color="#9D9BF5"/>
<stop offset="1" stop-color="#FF98DF"/>
</linearGradient>
<linearGradient id="paint18_linear_389_339" x1="3.3653" y1="0" x2="3.3653" y2="6.7306" gradientUnits="userSpaceOnUse">
<stop stop-color="#9D9BF5"/>
<stop offset="1" stop-color="#FF98DF"/>
</linearGradient>
<linearGradient id="paint19_linear_389_339" x1="3.3653" y1="0" x2="3.3653" y2="6.7306" gradientUnits="userSpaceOnUse">
<stop stop-color="#9D9BF5"/>
<stop offset="1" stop-color="#FF98DF"/>
</linearGradient>
<linearGradient id="paint20_linear_389_339" x1="2.69224" y1="0" x2="2.69224" y2="5.38448" gradientUnits="userSpaceOnUse">
<stop stop-color="#9D9BF5"/>
<stop offset="1" stop-color="#FF98DF"/>
</linearGradient>
<linearGradient id="paint21_linear_389_339" x1="2.69224" y1="0" x2="2.69224" y2="5.38448" gradientUnits="userSpaceOnUse">
<stop stop-color="#9D9BF5"/>
<stop offset="1" stop-color="#FF98DF"/>
</linearGradient>
<linearGradient id="paint22_linear_389_339" x1="89.8244" y1="639.402" x2="89.8244" y2="631.326" gradientUnits="userSpaceOnUse">
<stop stop-color="#9D9BF5"/>
<stop offset="1" stop-color="#FF98DF"/>
</linearGradient>
<linearGradient id="paint23_linear_389_339" x1="260.781" y1="638.729" x2="260.781" y2="630.653" gradientUnits="userSpaceOnUse">
<stop stop-color="#9D9BF5"/>
<stop offset="1" stop-color="#FF98DF"/>
</linearGradient>
<linearGradient id="paint24_linear_389_339" x1="27.5954" y1="0" x2="27.5954" y2="1" gradientUnits="userSpaceOnUse">
<stop stop-color="#9D9BF5"/>
<stop offset="1" stop-color="#FF98DF"/>
</linearGradient>
<linearGradient id="paint25_linear_389_339" x1="160.188" y1="0" x2="160.188" y2="1" gradientUnits="userSpaceOnUse">
<stop stop-color="#9D9BF5"/>
<stop offset="1" stop-color="#FF98DF"/>
</linearGradient>
<linearGradient id="paint26_linear_389_339" x1="131.92" y1="0" x2="131.92" y2="1" gradientUnits="userSpaceOnUse">
<stop stop-color="#9D9BF5"/>
<stop offset="1" stop-color="#FF98DF"/>
</linearGradient>
<linearGradient id="paint27_linear_389_339" x1="176.312" y1="622.446" x2="176.312" y2="618.408" gradientUnits="userSpaceOnUse">
<stop stop-color="#9D9BF5"/>
<stop offset="1" stop-color="#FF98DF"/>
</linearGradient>
</defs>
</svg>
