<svg width="154" height="138" viewBox="0 0 154 138" fill="none" xmlns="http://www.w3.org/2000/svg">
<g filter="url(#filter0_d_1_74)">
<path d="M100 0L118.85 27.2906L158.779 12.4139L149.35 41.6943L195.106 44.9139L161 65L195.106 85.0861L149.35 88.3057L158.779 117.586L118.85 102.709L100 130L81.15 102.709L41.2215 117.586L50.65 88.3057L4.89435 85.0861L39 65L4.89435 44.9139L50.65 41.6943L41.2215 12.4139L81.15 27.2906L100 0Z" fill="#FFD700" fill-opacity="0.85" shape-rendering="crispEdges"/>
<path d="M100 0L118.85 27.2906L158.779 12.4139L149.35 41.6943L195.106 44.9139L161 65L195.106 85.0861L149.35 88.3057L158.779 117.586L118.85 102.709L100 130L81.15 102.709L41.2215 117.586L50.65 88.3057L4.89435 85.0861L39 65L4.89435 44.9139L50.65 41.6943L41.2215 12.4139L81.15 27.2906L100 0Z" fill="black" fill-opacity="0.2" shape-rendering="crispEdges"/>
<path d="M100 0.879776L118.439 27.5748L118.66 27.895L119.025 27.7591L157.986 13.2426L148.874 41.5411L148.679 42.1483L149.315 42.1931L193.465 45.2997L160.746 64.5692L160.015 65L160.746 65.4308L193.465 84.7003L149.315 87.8069L148.679 87.8517L148.874 88.4589L157.986 116.757L119.025 102.241L118.66 102.105L118.439 102.425L100 129.12L81.5614 102.425L81.3401 102.105L80.9754 102.241L42.0136 116.757L51.1259 88.4589L51.3214 87.8517L50.6851 87.8069L6.53472 84.7003L39.2537 65.4308L39.9853 65L39.2537 64.5692L6.53473 45.2997L50.6851 42.1931L51.3214 42.1483L51.1259 41.5411L42.0136 13.2426L80.9754 27.7591L81.3401 27.895L81.5614 27.5748L100 0.879776Z" stroke="black" shape-rendering="crispEdges"/>
</g>
<defs>
<filter id="filter0_d_1_74" x="0.894348" y="0" width="198.211" height="138" filterUnits="userSpaceOnUse" color-interpolation-filters="sRGB">
<feFlood flood-opacity="0" result="BackgroundImageFix"/>
<feColorMatrix in="SourceAlpha" type="matrix" values="0 0 0 0 0 0 0 0 0 0 0 0 0 0 0 0 0 0 127 0" result="hardAlpha"/>
<feOffset dy="4"/>
<feGaussianBlur stdDeviation="2"/>
<feComposite in2="hardAlpha" operator="out"/>
<feColorMatrix type="matrix" values="0 0 0 0 0 0 0 0 0 0 0 0 0 0 0 0 0 0 0.25 0"/>
<feBlend mode="normal" in2="BackgroundImageFix" result="effect1_dropShadow_1_74"/>
<feBlend mode="normal" in="SourceGraphic" in2="effect1_dropShadow_1_74" result="shape"/>
</filter>
</defs>
</svg>
